<svg width="256" height="270" viewBox="0 0 256 270" fill="none" xmlns="http://www.w3.org/2000/svg">
<path d="M256 128C256 198.692 198.692 256 128 256C57.3076 256 0 198.692 0 128C0 57.3076 57.3076 0 128 0C198.692 0 256 57.3076 256 128Z" fill="#393939"/>
<g filter="url(#filter0_d_649_171)">
<path d="M215.233 48.8249C216.154 45.0643 211.835 42.2358 208.756 44.5829L159.015 82.4981H97.5029L47.4431 44.6682C44.361 42.3391 40.0608 45.1682 40.9796 48.9205L58.6972 121.271L58.5581 120.991L48.0528 133.275C46.765 134.781 46.7364 136.992 47.9847 138.53L97.4475 199.498L113.709 240.585C114.329 242.151 115.842 243.18 117.527 243.18H138.631C140.316 243.18 141.831 242.149 142.45 240.581L158.741 199.31L208.112 138.531C209.362 136.992 209.334 134.78 208.045 133.273L197.557 121.008L215.233 48.8249Z" fill="url(#paint0_radial_649_171)"/>
</g>
<defs>
<filter id="filter0_d_649_171" x="20.8535" y="29.7266" width="214.506" height="239.453" filterUnits="userSpaceOnUse" color-interpolation-filters="sRGB">
<feFlood flood-opacity="0" result="BackgroundImageFix"/>
<feColorMatrix in="SourceAlpha" type="matrix" values="0 0 0 0 0 0 0 0 0 0 0 0 0 0 0 0 0 0 127 0" result="hardAlpha"/>
<feOffset dy="6"/>
<feGaussianBlur stdDeviation="10"/>
<feColorMatrix type="matrix" values="0 0 0 0 0 0 0 0 0 0 0 0 0 0 0 0 0 0 1 0"/>
<feBlend mode="normal" in2="BackgroundImageFix" result="effect1_dropShadow_649_171"/>
<feBlend mode="normal" in="SourceGraphic" in2="effect1_dropShadow_649_171" result="shape"/>
</filter>
<radialGradient id="paint0_radial_649_171" cx="0" cy="0" r="1" gradientUnits="userSpaceOnUse" gradientTransform="translate(128.152 90.6072) rotate(90.0172) scale(152.572 133.489)">
<stop stop-color="#FF9431"/>
<stop offset="0.515625" stop-color="#FF9431" stop-opacity="0.75"/>
<stop offset="1" stop-color="#FF9431" stop-opacity="0.5"/>
</radialGradient>
</defs>
</svg>
